<svg width="0" height="0" class="hidden">
  <symbol xmlns="http://www.w3.org/2000/svg" viewBox="0 0 20 20" id="delete">
    <path d="M5.4551 17.5498L4.5551 8.54975C4.52566 8.25541 4.75681 8 5.05262 8H14.9476C15.2434 8 15.4746 8.25541 15.4451 8.54975L14.5451 17.5498C14.5196 17.8054 14.3045 18 14.0476 18H5.95262C5.69574 18 5.48066 17.8054 5.4551 17.5498Z"></path>
    <path d="M17.0001 6H3.00012C2.72398 6 2.50012 5.77614 2.50012 5.5V4.5C2.50012 4.22386 2.72398 4 3.00012 4H5.34873C5.44745 4 5.54395 3.97078 5.62608 3.91603L8.37416 2.08397C8.45629 2.02922 8.5528 2 8.65151 2H11.3487C11.4474 2 11.544 2.02922 11.6261 2.08397L14.3742 3.91603C14.4563 3.97078 14.5528 4 14.6515 4H17.0001C17.2763 4 17.5001 4.22386 17.5001 4.5V5.5C17.5001 5.77614 17.2763 6 17.0001 6Z" fill="#CCCCCC"></path>
  </symbol>
  <symbol xmlns="http://www.w3.org/2000/svg" viewBox="0 0 16 16" id="folder">
    <path fill-rule="evenodd" clip-rule="evenodd" d="M1.71002 3.96935L3.08181 2.52449C3.15733 2.44494 3.26221 2.3999 3.37189 2.3999H5.83441C5.9405 2.3999 6.04224 2.44205 6.11725 2.51706L7.48294 3.88275C7.55795 3.95776 7.6597 3.9999 7.76578 3.9999H13.4344C13.5405 3.9999 13.6422 4.04205 13.7173 4.11706L14.2829 4.68275C14.358 4.75776 14.4001 4.8595 14.4001 4.96559V12.6342C14.4001 12.7403 14.358 12.842 14.2829 12.9171L13.7173 13.4827C13.6422 13.5578 13.5405 13.5999 13.4344 13.5999H2.59C2.46983 13.5999 2.35602 13.5459 2.28005 13.4528L1.69015 12.7296C1.63191 12.6582 1.6001 12.5689 1.6001 12.4768V4.24476C1.6001 4.14227 1.63944 4.04368 1.71002 3.96935Z" ></path>
  </symbol>
  <symbol xmlns="http://www.w3.org/2000/svg" viewBox="0 0 20 20" id="plus">
    <path d="M11 5C11 4.44772 10.5523 4 9.99998 4C9.44769 4 8.99998 4.44772 8.99998 5V8.99998H5C4.44772 8.99998 4 9.44769 4 9.99998C4 10.5523 4.44772 11 5 11H8.99998V15C8.99998 15.5522 9.44769 16 9.99998 16C10.5523 16 11 15.5522 11 15V11H15C15.5522 11 16 10.5523 16 9.99998C16 9.44769 15.5522 8.99998 15 8.99998H11V5Z" ></path>
  </symbol>
  <symbol fill="none" xmlns="http://www.w3.org/2000/svg" viewBox="0 0 16 16" id="check">
    <path d="M7.6615 11.8737C7.56701 11.9987 7.41932 12.0723 7.26255 12.0723H6.68246C6.54732 12.0723 6.41794 12.0176 6.32379 11.9206L3.50416 9.01762C3.31572 8.8236 3.31572 8.51491 3.50416 8.32089L3.97576 7.83535C4.17213 7.63317 4.49672 7.63317 4.69309 7.83535L6.49492 9.69046C6.70848 9.91034 7.06779 9.88806 7.25254 9.64349L11.1512 4.48265C11.321 4.2579 11.6429 4.21769 11.8627 4.39375L12.3864 4.81309C12.5976 4.98226 12.6359 5.28881 12.4728 5.50476L7.6615 11.8737Z" fill="white"></path>
  </symbol>
    <symbol xmlns="http://www.w3.org/2000/svg" viewBox="0 0 20 20" id="arrow-down">
    <path d="M4.35355 9.05848C4.15829 8.86321 4.15829 8.54663 4.35355 8.35137L5.05683 7.64809C5.25194 7.45298 5.56823 7.45281 5.76355 7.6477L9.64683 11.5225C9.84201 11.7173 10.158 11.7173 10.3532 11.5225L14.2364 7.6477C14.4318 7.45281 14.7481 7.45298 14.9432 7.64809L15.6464 8.35137C15.8417 8.54663 15.8417 8.86321 15.6464 9.05848L10.3536 14.3514C10.1583 14.5466 9.84171 14.5466 9.64645 14.3514L4.35355 9.05848Z"></path>
  </symbol>
</svg>